<?xml version='1.0' encoding='utf-8'?>
<svg xmlns="http://www.w3.org/2000/svg" width="100%" height="100%" viewBox="0 0 1707 1067" version="1.1" style="fill-rule:evenodd;clip-rule:evenodd;stroke-linejoin:round;stroke-miterlimit:1.41421;"> <g transform="matrix(1.33333,0,0,1.33333,0,0)"> <g id="Layer2"> <rect x="0" y="0" width="1280" height="800" style="fill:url(#_Radial1);"/> </g> <g id="Layer1"> <path d="M397.252,800C397.736,772.165 399.243,738.247 401.012,701.903C403.341,654.043 399.685,603.023 396.96,567.261C392.972,563.076 391.843,534.053 391.843,526.965C391.843,526.866 391.846,526.764 391.851,526.659C391.846,526.286 391.843,525.948 391.843,525.648C391.843,519.396 402.301,501.579 406.583,501.317C407.049,500.944 407.496,500.638 407.916,500.41C414.88,493.268 423.591,487.877 433.366,483.886L433.362,483.867C432.836,481.835 436.769,479.995 442.001,478.323C448.351,475.38 459.109,472.715 463.834,471.905C468.146,471.167 479.492,471.558 490.431,472.806C502.032,474.128 513.175,476.368 514.988,478.428C515.403,478.655 515.761,478.885 516.057,479.119C562.756,480.586 627.547,483.786 693.187,488.156L693.754,488.193L695.183,488.289L695.742,488.326C698.689,488.524 701.637,488.724 704.585,488.926L705.193,488.968L705.846,489.012L706.623,489.066L707.143,489.102L707.255,489.11C709.769,489.283 712.283,489.458 714.795,489.635L714.825,489.637C743.64,491.666 953.768,548.606 958.206,551.709C962.373,554.622 965.023,565.558 962.549,576.613C962.42,577.58 962.276,578.436 962.116,579.163C962.38,639.081 959.569,733.443 957.534,800L397.252,800Z" style="fill:url(#_Linear2);"/> <path d="M397.252,800C397.736,772.165 399.243,738.247 401.012,701.903C403.341,654.043 399.685,603.023 396.96,567.261C392.972,563.076 391.843,534.053 391.843,526.965C391.843,526.866 391.846,526.764 391.851,526.659C391.846,526.286 391.843,525.948 391.843,525.648C391.843,519.396 402.301,501.579 406.583,501.317C407.049,500.944 407.496,500.638 407.916,500.41C413.722,494.455 420.743,489.718 428.582,485.994C430.124,486.678 431.681,487.399 433.242,488.156L433.32,488.193L433.517,488.289L433.593,488.326C433.998,488.524 434.403,488.724 434.808,488.926L434.892,488.968L435.088,489.066L435.175,489.11C435.52,489.283 435.866,489.458 436.211,489.635L436.215,489.637C440.174,491.666 444.105,493.909 447.807,496.317L447.808,496.318C448.025,496.459 448.242,496.601 448.457,496.743L448.495,496.769L448.586,496.829L448.623,496.853C448.81,496.977 448.996,497.101 449.181,497.226L449.22,497.252L449.311,497.313L449.401,497.374L449.426,497.391C449.559,497.481 449.692,497.572 449.824,497.662L449.939,497.741L450.029,497.802L450.118,497.863L450.148,497.884C450.277,497.973 450.406,498.063 450.535,498.152L450.562,498.171L450.651,498.233L450.739,498.295L450.828,498.357L450.862,498.381C450.988,498.469 451.113,498.558 451.239,498.646L451.268,498.667L451.355,498.729L451.443,498.791L451.53,498.854L451.617,498.916L451.637,498.93C451.737,499.002 451.836,499.073 451.935,499.144L451.965,499.167L452.052,499.229L452.138,499.292L452.225,499.355L452.311,499.418L452.337,499.437C452.432,499.507 452.528,499.577 452.623,499.647L452.655,499.67L452.741,499.733L452.826,499.797L452.911,499.86L452.997,499.923L453.027,499.946C453.119,500.015 453.211,500.084 453.303,500.152L453.336,500.178L453.421,500.241L453.505,500.305L453.589,500.369L453.674,500.433L453.708,500.459C453.797,500.527 453.885,500.594 453.974,500.662L454.009,500.689L454.092,500.753L454.176,500.817L454.259,500.881L454.342,500.946L454.44,501.022C454.505,501.073 454.571,501.124 454.636,501.175L454.672,501.204L454.755,501.268L454.837,501.333L454.919,501.397L455.001,501.462L455.093,501.535L455.107,501.547C455.168,501.595 455.228,501.643 455.289,501.692L455.326,501.722L455.408,501.787L455.488,501.852L455.569,501.917L455.65,501.982L455.741,502.057L455.761,502.073C455.818,502.119 455.875,502.166 455.932,502.212L455.971,502.244L456.051,502.309L456.13,502.375L456.21,502.44L456.289,502.506L456.38,502.581L456.447,502.637L456.526,502.703L456.605,502.769L456.684,502.835L456.762,502.901L456.84,502.967L456.918,503.033L457.008,503.109L457.074,503.165L457.151,503.231L457.229,503.297L457.306,503.363L457.383,503.43L457.46,503.496L457.537,503.563L457.626,503.64L457.655,503.665C457.703,503.707 457.752,503.75 457.8,503.792L457.842,503.829L457.918,503.896L457.993,503.962L458.069,504.029L458.144,504.096L458.232,504.174L458.299,504.234L458.369,504.297L458.444,504.364L458.518,504.431L458.592,504.498L458.667,504.565L458.74,504.632L458.828,504.712L458.893,504.772L458.961,504.834L459.034,504.901L459.107,504.969L459.18,505.036L459.253,505.104L459.325,505.172L459.411,505.252L459.475,505.312L459.541,505.375L459.613,505.442L459.684,505.51L459.756,505.578L459.827,505.646L459.897,505.714L459.982,505.795L460.045,505.856L460.109,505.918L460.179,505.986L460.249,506.054L460.319,506.122L460.388,506.191L460.458,506.259L460.541,506.341L460.602,506.402L460.664,506.464L460.733,506.533L460.801,506.601L460.869,506.67L460.937,506.738L461.005,506.807L461.087,506.89L461.147,506.951L461.207,507.013L461.274,507.082L461.341,507.151L461.407,507.219L461.473,507.288L461.54,507.357L461.605,507.426L461.679,507.503L461.736,507.564L461.802,507.634L461.867,507.703L461.932,507.772L461.996,507.841L462.061,507.911L462.125,507.98L462.196,508.058L462.257,508.123L462.316,508.188L462.379,508.258L462.419,508.302C462.427,508.291 462.436,508.282 462.445,508.276C462.567,508.185 462.822,508.312 463.166,508.603C464.477,509.173 469.148,515.621 469.757,518.724C470.33,521.637 470.588,565.558 470.248,576.613C470.23,577.58 470.21,578.436 470.188,579.163C470.224,639.081 469.838,733.443 469.559,800L397.252,800Z" style="fill:url(#_Linear3);"/> <path d="M398.388,574.789C398.36,569.712 428.434,598.543 433.492,601.236C438.55,603.929 506.203,607.282 514.598,607.115C522.994,606.949 614.169,601.285 622.39,601.285C630.611,601.285 864.577,579.938 884.115,578.534C903.652,577.129 966.965,535.469 965.861,562.663C965.168,579.722 918.443,595.399 904.756,597.694C897.255,598.952 808.571,608.467 727.445,614.227C660.553,618.976 598.799,623.304 591.926,623.99C576.72,625.507 495.523,626.874 471.638,624.377C462.027,623.372 438.26,622.261 422.436,613.88C403.747,603.983 398.444,584.766 398.388,574.789Z" style="fill:rgb(65,53,47);fill-opacity:0.5;"/> <g transform="matrix(1,0,0,0.930755,0,38.3249)"> <path d="M398.388,574.789C398.36,569.712 428.434,598.543 433.492,601.236C438.55,603.929 506.203,607.282 514.598,607.115C522.994,606.949 614.169,601.285 622.39,601.285C630.611,601.285 864.577,579.938 884.115,578.534C903.652,577.129 966.965,535.469 965.861,562.663C965.168,579.722 906.577,590.429 892.89,592.724C879.203,595.019 607.133,619.339 591.926,620.856C576.72,622.374 495.523,624.652 471.638,622.155C462.027,621.15 441.802,622.261 425.978,613.88C407.289,603.983 398.444,584.766 398.388,574.789Z" style="fill:rgb(65,53,47);fill-opacity:0.5;"/> </g> <g transform="matrix(1.37523,0,0,1.37523,-269.733,-14.4847)"> <path d="M485.982,178.991C483.843,199.644 485.542,241.461 487.854,288.982C490.734,348.171 481.027,414.007 483.47,420.602C489.626,437.218 504.246,446.346 521.63,450.896C539.014,455.445 877.37,438.057 893.213,419.711C900.297,411.508 892.131,357.732 889.086,301.672C885.32,232.348 889.771,163.424 886.92,152.112C884.046,140.709 872.607,126.218 850.806,125.559C844.633,125.373 815.42,122.246 777.248,124.086C680.534,128.748 522.93,134.176 511.787,136.417C492.175,140.36 487.69,162.493 485.982,178.991Z" style="fill:url(#_Linear4);"/> </g> <g transform="matrix(1.37523,0,0,1.37523,-269.733,-14.4847)"> <path d="M538.198,451.629C537.156,449.78 536.334,301.165 539.603,227.366C540.74,201.676 539.265,181.141 542.517,179.597C562.819,169.958 652.043,169.649 680.327,169.341C708.611,169.033 872.81,158.739 886.81,158.739C888.104,158.739 889.535,160.334 891.065,163.229C890.979,186.968 900.297,411.508 893.213,419.711C879.115,436.036 609.641,451.603 538.198,451.629Z" style="fill:url(#_Linear5);"/> </g> <g transform="matrix(1.37523,0,0,1.37523,-269.733,-14.4847)"> <path d="M495.606,154.77C498.09,149.909 536.228,171.164 536.228,178.042C536.228,181.627 533.973,254.654 533.099,323.482C532.296,386.72 530.202,446.007 527.925,446.123C525.546,446.245 515.09,446.672 506.207,440.998C497.324,435.324 490.092,423.903 488.585,420.891C486.391,416.504 495.842,280.883 490.622,204.19C488.689,175.777 494.253,157.416 495.606,154.77Z" style="fill:url(#_Linear6);"/> </g> <g transform="matrix(1.53712,0,0,1.56045,-360.37,-48.6801)"> <path d="M524.931,167.227C525.116,165.044 540.322,165.155 555.339,167.198C570.475,169.257 585.421,173.265 585.174,175.13C584.682,178.846 544.903,219.236 539.244,217.96C533.585,216.685 524.704,169.894 524.931,167.227Z" style="fill:rgb(100,56,29);"/> </g> <g transform="matrix(1.37523,0,0,1.37523,-271.108,-14.4847)"> <path d="M524.931,167.227C525.303,162.844 585.666,171.414 585.174,175.13C584.682,178.846 544.274,217.651 538.615,216.376C532.955,215.1 524.704,169.894 524.931,167.227Z" style="fill:rgb(166,166,166);"/> </g> <g transform="matrix(1.37523,0,0,1.37523,-269.733,-14.4847)"> <path d="M530.29,168.703C533.292,165.984 545.848,169.859 550.112,170.023C554.377,170.187 579.257,173.203 579.257,176.483C579.257,179.763 548.442,180.897 545.046,181.781C541.579,182.683 527.475,171.252 530.29,168.703Z" style="fill:rgb(230,230,230);"/> </g> <g transform="matrix(1.37523,0,0,1.37523,-269.733,-14.4847)"> <path d="M544.571,187.347C545.428,182.608 576.285,179.001 578.095,180.271C580.263,181.792 545.142,212.854 541.725,212.072C538.193,211.264 544.133,189.77 544.571,187.347Z" style="fill:rgb(204,204,204);"/> </g> <g transform="matrix(1.37523,0,0,1.37523,-269.733,-14.4847)"> <path d="M529.029,170.173C530.231,169.21 541.225,180.888 542.98,181.37C544.563,181.805 574.357,177.347 574.562,179.473C574.819,182.134 545.856,185.712 545.164,186.299C543.923,187.349 542.353,211.814 540.667,212.072C538.254,212.443 541.617,187.578 540.29,185.93C538.964,184.281 527.283,171.572 529.029,170.173Z" style="fill:white;"/> </g> <g transform="matrix(1.49531,0,0,1.51107,-335.197,-76.4739)"> <path d="M535.295,417.107C539.58,417.583 570.063,446.294 570.063,450.42C570.063,454.547 538.296,457.69 533.232,455.755C528.167,453.821 513.285,451.404 514.091,448.319C514.897,445.234 531.01,416.631 535.295,417.107Z" style="fill:rgb(100,56,29);"/> </g> <g transform="matrix(1.37523,0,0,1.37523,-269.733,-14.4847)"> <path d="M534.633,417.24C538.918,417.716 572.123,447.267 570.896,451.207C570.407,452.777 561.829,454.549 552.875,455.57C544.921,456.477 536.671,456.762 533.535,456.225C528.369,455.34 513.285,451.404 514.091,448.319C514.897,445.234 530.347,416.764 534.633,417.24Z" style="fill:rgb(166,166,166);"/> </g> <g transform="matrix(1.63385,0,0,1.52773,-394.175,-79.4155)"> <path d="M492.501,434.675C489.92,436.548 481.187,422.018 481.187,417.145C481.187,412.273 481.949,391.564 484.7,390.483C486.788,389.663 491.711,403.932 493.796,415.873C495.384,424.969 494.125,433.496 492.501,434.675Z" style="fill:rgb(100,56,29);"/> </g> <g transform="matrix(1.37523,0,0,1.37523,-269.733,-14.4847)"> <path d="M492.501,434.675C489.92,436.548 481.187,422.018 481.187,417.145C481.187,412.273 482.1,393.22 484.7,391.774C487.3,390.328 496.257,431.948 492.501,434.675Z" style="fill:rgb(166,166,166);"/> </g> <g transform="matrix(1.53146,-0.0179002,0,1.4899,-345.177,-21.4872)"> <path d="M484.385,146.226C482.725,149.95 481.455,186.369 485.917,187.119C491.709,188.092 506.799,156.531 506.799,156.531C506.799,156.531 517.764,139.005 515.393,136.869C512.459,134.227 486.045,142.502 484.385,146.226Z" style="fill:rgb(100,56,29);"/> </g> <g transform="matrix(1.37523,0,0,1.37523,-269.733,-14.4847)"> <path d="M484.385,146.226C482.725,149.95 481.661,184.631 485.917,186.225C490.173,187.819 517.97,138.752 515.393,136.869C512.214,134.548 486.045,142.502 484.385,146.226Z" style="fill:rgb(166,166,166);"/> </g> <g transform="matrix(1.46229,0,0,1.44397,-347.589,-17.9226)"> <path d="M890.621,192.798C887.607,195.742 849.07,164.557 848.253,160.949C847.358,156.991 871.193,134.784 876.809,133.754C882.425,132.725 891.839,154.754 893.221,159.477C894.685,164.477 893.635,189.853 890.621,192.798Z" style="fill:rgb(100,56,29);"/> </g> <g transform="matrix(1.37523,0,0,1.37523,-269.753,-8.7313)"> <path d="M891.371,191.135C888.357,194.08 850.917,164.557 850.1,160.949C849.205,156.991 871.193,134.784 876.809,133.754C882.425,132.725 891.839,154.754 893.221,159.477C894.685,164.477 894.385,188.191 891.371,191.135Z" style="fill:rgb(166,166,166);"/> </g> <g transform="matrix(1.37523,0,0,1.73188,-269.948,-57.1561)"> <path d="M834.577,124.654C836.089,122.222 864.704,123.841 866.044,127.996C867.171,131.489 856.692,131.532 851.5,131.658C846.308,131.784 833.064,127.087 834.577,124.654Z" style="fill:rgb(100,56,29);"/> </g> <g transform="matrix(1.37523,0,0,1.37523,-269.948,-13.0954)"> <path d="M835.332,124.543C836.846,122.014 863.478,124.288 865.647,128.329C867.504,131.79 856.692,131.384 851.5,131.51C846.308,131.636 833.861,127.001 835.332,124.543Z" style="fill:rgb(166,166,166);"/> </g> <g transform="matrix(1.40976,0,0,1.40976,-300.711,-29.3144)"> <path d="M894.78,377.552C898.047,376.689 897.083,419.731 893.58,422.181C890.076,424.63 859.83,430.172 855.916,429.773C851.511,429.324 859.084,415.578 869.088,402.855C878.986,390.268 892.154,378.245 894.78,377.552Z" style="fill:rgb(100,56,29);"/> </g> <g transform="matrix(1.37523,0,0,1.37523,-269.733,-14.4847)"> <path d="M895.093,378.274C898.361,377.412 897.083,419.731 893.58,422.181C890.076,424.63 861.238,429.947 857.324,429.548C848.562,428.655 889.814,379.668 895.093,378.274Z" style="fill:rgb(166,166,166);"/> </g> <g transform="matrix(1.37523,0,0,1.37523,-269.733,-14.4847)"> <path d="M488.118,148.274C488.118,148.274 508.53,137.539 510.38,139.389C512.231,141.24 503.956,157.485 501.029,156.949C498.103,156.413 488.118,148.274 488.118,148.274Z" style="fill:rgb(230,230,230);"/> </g> <g transform="matrix(1.37523,0,0,1.37523,-266.192,-8.7313)"> <path d="M849.118,159.473C849.118,159.473 853.282,153.558 859.082,147.417C864.836,141.324 873.415,135.003 875.39,135.263C878.47,135.668 884.73,146.07 884.664,149.901C884.592,154.1 851.921,162.678 849.118,159.473Z" style="fill:rgb(230,230,230);"/> </g> <g transform="matrix(1.28587,0,0,1.28587,-194.823,-2.76607)"> <path d="M838.26,126.505C838.725,123.973 847.331,124.516 852.554,125.193C858.035,125.904 866.421,128.278 866.171,129.993C865.953,131.482 853.399,131.832 850.24,131.534C847.418,131.267 837.947,128.213 838.26,126.505Z" style="fill:white;"/> </g> <g transform="matrix(1.37523,0,0,1.37523,-269.733,-14.4847)"> <path d="M535.147,418.22C532.29,418.21 536.084,455.122 538.811,455.231C541.537,455.341 569.154,453.327 569.154,450.401C569.154,447.475 536.382,418.224 535.147,418.22Z" style="fill:rgb(230,230,230);"/> </g> <g transform="matrix(1.37523,0,0,1.37523,-269.733,-14.4847)"> <path d="M894.339,381.439C895.802,383.313 894.737,418.135 892.405,420.416C890.074,422.697 858.361,430.323 858.08,426.895C857.773,423.15 892.621,379.239 894.339,381.439Z" style="fill:rgb(230,230,230);"/> </g> <g transform="matrix(1.37523,0,0,1.37523,-266.192,-8.7313)"> <path d="M849.141,159.497C849.138,159.203 850.571,160.303 852.986,160.21C854.465,160.154 855.804,160.002 857.698,159.699C861.41,159.105 865.637,158.161 869.385,157.078C873.349,155.933 884.352,150.113 884.942,150.202C885.589,150.299 884.489,153.529 880.581,155.855C878.049,157.362 873.335,158.881 870.549,159.723C866.936,160.814 857.938,163.102 853.218,162.644C850.609,162.391 849.154,160.688 849.141,159.497Z" style="fill:white;"/> </g> <g transform="matrix(1.37523,0,0,1.37523,-269.733,-14.4847)"> <path d="M893.454,382.527C894.77,381.438 893.163,420.722 891.855,420.771C883.984,421.071 888.606,386.536 893.454,382.527Z" style="fill:white;"/> </g> <g transform="matrix(1.37523,0,0,1.37523,-269.733,-14.4847)"> <path d="M535.019,418.457C530.716,420.1 532.191,449.368 532.744,450.905C533.298,452.442 537.328,455.535 538.222,455.259C539.116,454.982 536.073,418.055 535.019,418.457Z" style="fill:white;"/> </g> <g transform="matrix(1.37523,0,0,1.37523,-269.733,-14.4847)"> <path d="M511.497,159.234C503.323,168.722 500.59,440.378 503.849,442.973C506.957,445.448 505.199,170.032 517.441,162.978C524.913,158.673 878.208,138.557 876.852,135.616C875.646,132.998 517.266,152.536 511.497,159.234Z" style="fill:rgb(100,56,29);"/> </g> <g transform="matrix(1.37523,0,0,1.37523,-269.733,-14.4847)"> <path d="M589.161,174.512C591.014,169.542 715.035,167.5 730.867,166.231C751.995,164.537 849.309,158.68 848.46,160.717C846.821,164.649 736.733,170.972 729.548,171.64C722.363,172.309 587.489,179 589.161,174.512Z" style="fill:rgb(173,134,88);"/> </g> <g transform="matrix(0.739652,0,0,0.739652,142.642,40.823)"> <path d="M501.779,325.733C465.47,358.941 473.063,620.279 513.309,695.438C532.728,731.702 967.498,739.391 1025.61,671.724C1056.71,635.51 1057.33,386.124 1027.79,321.605C1010.22,283.249 543.707,287.385 501.779,325.733Z" style="fill:url(#_Linear7);"/> </g> <g transform="matrix(1.37523,0,0,1.37523,-316.451,-13.5093)"> <path d="M621.902,131.02L593.348,131.938C593.348,131.938 619.4,161.415 631.021,175.444C637.979,183.843 631.75,423.836 635.288,448.647C635.593,450.79 664.485,446.052 664.485,446.052C664.485,446.052 666.584,175.703 663.503,170.174C660.421,164.645 621.902,131.02 621.902,131.02Z" style="fill:rgb(135,79,46);"/> <path d="M621.902,131.02L593.348,131.938C593.348,131.938 628.558,164.057 635.551,170.99C650.844,186.152 635.288,448.647 635.288,448.647L664.485,446.052C664.485,446.052 666.584,175.703 663.503,170.174C660.421,164.645 621.902,131.02 621.902,131.02Z" style="fill:url(#_Linear8);"/> <path d="M595.693,132.274C595.693,132.274 641.886,168.019 644.924,174.616C650.411,186.534 643.714,447.355 638.219,448.837C634.263,449.904 643.666,195.179 638.912,177.084C637.173,170.464 595.693,132.274 595.693,132.274Z" style="fill:rgb(173,134,88);"/> </g> <g transform="matrix(1.37523,0,0,1.34707,-25.2104,-20.8909)"> <path d="M621.902,131.02L593.348,131.938C593.348,131.938 619.4,161.415 631.021,175.444C637.979,183.843 631.75,423.836 635.288,448.647C635.593,450.79 664.485,446.052 664.485,446.052C664.485,446.052 666.584,175.703 663.503,170.174C660.421,164.645 621.902,131.02 621.902,131.02Z" style="fill:rgb(135,79,46);"/> <path d="M621.902,131.02L593.348,131.938C593.348,131.938 628.558,164.057 635.551,170.99C650.844,186.152 635.288,448.647 635.288,448.647L664.485,446.052C664.485,446.052 666.584,175.703 663.503,170.174C660.421,164.645 621.902,131.02 621.902,131.02Z" style="fill:url(#_Linear9);"/> <path d="M596.007,132.206C598.848,131.04 639.253,167.08 642.29,175.973C646.535,188.399 643.714,447.355 638.219,448.837C634.263,449.904 643.666,195.179 638.912,177.084C637.173,170.464 595.709,132.329 596.007,132.206Z" style="fill:rgb(173,134,88);"/> </g> <g transform="matrix(0.549398,0.195243,-0.195243,0.549398,214.528,4.179)"> <g transform="matrix(1.38882,0,0,1.21281,-228.862,-45.0876)"> <ellipse cx="590.359" cy="235.196" rx="8.132" ry="12.066" style="fill:rgb(142,137,127);"/> </g> <g transform="matrix(1.02127,0,0,0.996274,-13.2865,4.38739)"> <ellipse cx="590.359" cy="235.196" rx="8.132" ry="12.066" style="fill:rgb(189,182,169);"/> </g> <g transform="matrix(0.75427,0,0,0.75427,143.071,60.7596)"> <ellipse cx="590.359" cy="235.196" rx="8.132" ry="12.066" style="fill:rgb(242,231,210);"/> </g> </g> <g transform="matrix(0.549398,0.195243,-0.195243,0.549398,660.873,-20.6472)"> <g transform="matrix(1.38882,0,0,1.21281,-228.862,-45.0876)"> <ellipse cx="590.359" cy="235.196" rx="8.132" ry="12.066" style="fill:rgb(142,137,127);"/> </g> <g transform="matrix(1.02127,0,0,0.996274,-13.2865,4.38739)"> <ellipse cx="590.359" cy="235.196" rx="8.132" ry="12.066" style="fill:rgb(189,182,169);"/> </g> <g transform="matrix(0.75427,0,0,0.75427,143.071,60.7596)"> <ellipse cx="590.359" cy="235.196" rx="8.132" ry="12.066" style="fill:rgb(242,231,210);"/> </g> </g> <g transform="matrix(0.549398,0.195243,-0.195243,0.549398,658.571,308.608)"> <g transform="matrix(1.38882,0,0,1.21281,-228.862,-45.0876)"> <ellipse cx="590.359" cy="235.196" rx="8.132" ry="12.066" style="fill:rgb(142,137,127);"/> </g> <g transform="matrix(1.02127,0,0,0.996274,-13.2865,4.38739)"> <ellipse cx="590.359" cy="235.196" rx="8.132" ry="12.066" style="fill:rgb(189,182,169);"/> </g> <g transform="matrix(0.75427,0,0,0.75427,143.071,60.7596)"> <ellipse cx="590.359" cy="235.196" rx="8.132" ry="12.066" style="fill:rgb(242,231,210);"/> </g> </g> <g transform="matrix(0.589025,-0.190842,0.190842,0.589025,91.6345,566.789)"> <g transform="matrix(1.38882,0,0,1.21281,-228.862,-45.0876)"> <ellipse cx="590.359" cy="235.196" rx="8.132" ry="12.066" style="fill:rgb(142,137,127);"/> </g> <g transform="matrix(1.02127,0,0,0.996274,-13.2865,4.38739)"> <ellipse cx="590.359" cy="235.196" rx="8.132" ry="12.066" style="fill:rgb(189,182,169);"/> </g> <g transform="matrix(0.75427,0,0,0.75427,143.071,60.7596)"> <ellipse cx="590.359" cy="235.196" rx="8.132" ry="12.066" style="fill:rgb(242,231,210);"/> </g> </g> <g transform="matrix(0.586837,0.197467,-0.197467,0.586837,152.441,335.893)"> <g transform="matrix(1.38882,0,0,1.21281,-228.862,-45.0876)"> <ellipse cx="590.359" cy="235.196" rx="8.132" ry="12.066" style="fill:rgb(142,137,127);"/> </g> <g transform="matrix(1.02127,0,0,0.996274,-13.2865,4.38739)"> <ellipse cx="590.359" cy="235.196" rx="8.132" ry="12.066" style="fill:rgb(189,182,169);"/> </g> <g transform="matrix(0.75427,0,0,0.75427,143.071,60.7596)"> <ellipse cx="590.359" cy="235.196" rx="8.132" ry="12.066" style="fill:rgb(242,231,210);"/> </g> </g> <g transform="matrix(0.133298,0.448006,-0.367533,0.109354,495.099,-64.2735)"> <g transform="matrix(1.38882,0,0,1.21281,-228.862,-45.0876)"> <ellipse cx="590.359" cy="235.196" rx="8.132" ry="12.066" style="fill:rgb(142,137,127);"/> </g> <g transform="matrix(1.02127,0,0,0.996274,-13.2865,4.38739)"> <ellipse cx="590.359" cy="235.196" rx="8.132" ry="12.066" style="fill:rgb(189,182,169);"/> </g> <g transform="matrix(0.75427,0,0,0.75427,143.071,60.7596)"> <ellipse cx="590.359" cy="235.196" rx="8.132" ry="12.066" style="fill:rgb(242,231,210);"/> </g> </g> <g transform="matrix(0.151078,0.507763,-0.416555,0.12394,942.669,-136.128)"> <g transform="matrix(1.38882,0,0,1.21281,-228.862,-45.0876)"> <ellipse cx="590.359" cy="235.196" rx="8.132" ry="12.066" style="fill:rgb(142,137,127);"/> </g> <g transform="matrix(1.02127,0,0,0.996274,-13.2865,4.38739)"> <ellipse cx="590.359" cy="235.196" rx="8.132" ry="12.066" style="fill:rgb(189,182,169);"/> </g> <g transform="matrix(0.75427,0,0,0.75427,143.071,60.7596)"> <ellipse cx="590.359" cy="235.196" rx="8.132" ry="12.066" style="fill:rgb(242,231,210);"/> </g> </g> <g transform="matrix(0.0774382,0.260264,-0.252733,0.0751974,914.891,-10.1707)"> <g transform="matrix(1.38882,0,0,1.21281,-228.862,-45.0876)"> <ellipse cx="590.359" cy="235.196" rx="8.132" ry="12.066" style="fill:rgb(142,137,127);"/> </g> <g transform="matrix(1.02127,0,0,0.996274,-13.2865,4.38739)"> <ellipse cx="590.359" cy="235.196" rx="8.132" ry="12.066" style="fill:rgb(189,182,169);"/> </g> <g transform="matrix(0.75427,0,0,0.75427,143.071,60.7596)"> <ellipse cx="590.359" cy="235.196" rx="8.132" ry="12.066" style="fill:rgb(242,231,210);"/> </g> </g> <g transform="matrix(0.1132,0.380458,-0.362656,0.107904,440.033,-63.012)"> <g transform="matrix(1.38882,0,0,1.21281,-228.862,-45.0876)"> <ellipse cx="590.359" cy="235.196" rx="8.132" ry="12.066" style="fill:rgb(142,137,127);"/> </g> <g transform="matrix(1.02127,0,0,0.996274,-13.2865,4.38739)"> <ellipse cx="590.359" cy="235.196" rx="8.132" ry="12.066" style="fill:rgb(189,182,169);"/> </g> <g transform="matrix(0.75427,0,0,0.75427,143.071,60.7596)"> <ellipse cx="590.359" cy="235.196" rx="8.132" ry="12.066" style="fill:rgb(242,231,210);"/> </g> </g> <g transform="matrix(0.298715,0.205119,-0.205119,0.298715,727.124,414.318)"> <g transform="matrix(2.11359,0,0,2.11359,-124.236,-154.723)"> <circle cx="163.731" cy="129.748" r="62.641" style="fill:rgb(216,232,241);"/> </g> <g transform="matrix(1.92739,0,0,1.92739,-93.7498,-130.564)"> <circle cx="163.731" cy="129.748" r="62.641" style="fill:rgb(145,221,209);"/> </g> <g transform="matrix(0.5705,0,0,0.5705,125.37,-63.0373)"> <path d="M154.856,277.803C157.733,215.694 164.583,171.954 172.567,171.954C180.595,171.954 187.476,216.185 190.325,278.847C195.445,280.836 203.086,283.834 212.044,287.442C213.179,275.746 216.026,267.896 222.902,267.798C230.25,267.694 233.358,279.926 234.21,296.545C267.906,310.675 305.955,328.121 305.827,334.798C305.684,342.278 266.236,337.446 232.006,331.84C229.888,341.089 226.596,347.036 222.902,347.036C218.792,347.036 215.181,339.676 213.129,328.597C204.539,327.058 197.038,325.633 191.614,324.579C191.688,330.698 191.726,336.913 191.726,343.207C191.726,376.527 190.659,407.636 188.814,433.953C206.07,446.248 243.489,473.986 243.312,483.202C243.104,494.088 199.881,481.181 184.621,476.282C181.328,500.152 177.133,514.46 172.567,514.46C167.948,514.46 163.709,499.823 160.399,475.46C148.222,479.46 99.397,494.774 99.176,483.202C98.99,473.507 140.414,443.312 156.195,432.164C154.426,406.231 153.407,375.775 153.407,343.207C153.407,336.736 153.447,330.347 153.526,324.061C147.793,325.187 138.664,326.94 127.97,328.845C125.863,338.274 122.548,344.371 118.82,344.411L118.783,344.412C115.454,344.412 112.452,339.584 110.341,331.863C76.144,337.459 36.803,342.268 36.661,334.798C36.534,328.186 73.842,311.016 107.288,296.96C107.66,278.869 109.729,265.303 118.783,265.175C118.817,265.174 118.852,265.174 118.886,265.174L118.938,265.174C125.24,265.235 128.382,274.478 129.647,287.763C140.707,283.303 149.845,279.74 154.856,277.803Z" style="fill:rgb(228,228,228);"/> </g> </g> <g transform="matrix(0.0790101,0.701529,0.323743,-0.0364617,274.854,151.101)"> <g transform="matrix(1.38882,0,0,1.21281,-228.862,-45.0876)"> <ellipse cx="590.359" cy="235.196" rx="8.132" ry="12.066" style="fill:rgb(142,137,127);"/> </g> <g transform="matrix(1.02127,0,0,0.996274,-13.2865,4.38739)"> <ellipse cx="590.359" cy="235.196" rx="8.132" ry="12.066" style="fill:rgb(189,182,169);"/> </g> <g transform="matrix(0.75427,0,0,0.75427,143.071,60.7596)"> <ellipse cx="590.359" cy="235.196" rx="8.132" ry="12.066" style="fill:rgb(242,231,210);"/> </g> </g> <g transform="matrix(0.0278882,0.517806,0.307083,-0.016539,373.732,-52.485)"> <g transform="matrix(1.38882,0,0,1.21281,-228.862,-45.0876)"> <ellipse cx="590.359" cy="235.196" rx="8.132" ry="12.066" style="fill:rgb(142,137,127);"/> </g> <g transform="matrix(1.02127,0,0,0.996274,-13.2865,4.38739)"> <ellipse cx="590.359" cy="235.196" rx="8.132" ry="12.066" style="fill:rgb(189,182,169);"/> </g> <g transform="matrix(0.75427,0,0,0.75427,143.071,60.7596)"> <ellipse cx="590.359" cy="235.196" rx="8.132" ry="12.066" style="fill:rgb(242,231,210);"/> </g> </g> <g transform="matrix(1.44003,0,0,1.44003,-312.906,-23.1789)"> <path d="M630.117,135.049C634.315,130.962 666.162,155.006 665.961,159.079C665.76,163.151 653.766,163.89 652.021,162.493C650.712,161.444 638.512,150.149 632.396,142.487C628.964,138.188 629.126,136.013 630.117,135.049Z" style="fill:rgb(100,56,29);"/> </g> <g transform="matrix(1.37523,0,0,1.37523,-269.733,-14.4847)"> <path d="M628.676,134.642C629.335,134 632.81,132.704 634.334,133.913C643.37,141.076 664.984,156.359 665.921,159.439C667.106,163.341 654.338,161.901 652.566,160.639C650.746,159.342 625.92,137.325 628.676,134.642Z" style="fill:rgb(171,171,171);"/> </g> <g transform="matrix(1.37523,0,0,1.37523,-269.733,-14.4847)"> <path d="M638.32,143.508C635.71,140.648 638.577,120.322 639.873,120.851C640.13,120.956 643.275,123.177 643.071,124.687C642.414,129.557 642.259,136.369 642.587,141.442C642.658,142.531 639.034,144.291 638.32,143.508Z" style="fill:rgb(139,134,134);"/> </g> <g transform="matrix(0.789802,0,0,0.789802,98.2721,32.7372)"> <path d="M846.94,161.229C841.435,161.229 831.461,164.726 832.003,170.355C832.545,175.984 863.111,212.727 867.99,216.159C872.868,219.592 882.851,210.958 884.658,207.263C886.465,203.568 852.444,161.229 846.94,161.229Z" style="fill:rgb(100,56,29);"/> </g> <g transform="matrix(0.739652,0,0,0.739652,142.642,40.823)"> <path d="M846.94,161.229C841.435,161.229 831.461,164.726 832.003,170.355C832.545,175.984 863.111,212.727 867.99,216.159C872.868,219.592 882.851,210.958 884.658,207.263C886.465,203.568 852.444,161.229 846.94,161.229Z" style="fill:rgb(171,171,171);"/> </g> <g transform="matrix(-1.36901,0.130686,0.130686,1.36901,1647.63,-123.639)"> <path d="M653.073,152.515C652.454,150.53 652.105,147.23 652.631,142.301C653.096,137.943 654.68,133.879 656.333,131.049C657.07,129.788 660.697,128.615 660.717,129.21C660.771,130.754 657.751,136.41 657.717,141.895C657.689,146.472 658.004,149.107 658.288,150.811C658.592,152.634 653.591,154.175 653.073,152.515Z" style="fill:rgb(139,134,134);"/> </g> <g transform="matrix(0.739652,0,0,0.850127,142.642,21.9722)"> <path d="M854.9,144.217C854.9,144.217 836.925,139.975 832.75,138.713C828.776,137.513 815.144,117.051 804.457,104.171C786.798,82.89 729.288,104.448 729.288,104.448C729.288,104.448 748.484,84.598 771.617,81.98C799.824,78.787 810.814,86.181 823.698,96.712C836.582,107.243 854.9,144.217 854.9,144.217Z" style="fill:rgb(142,78,42);"/> </g> <g transform="matrix(1.37523,0,0,1.58064,-269.733,-41.5963)"> <path d="M657.45,131.539C650.553,133.466 639.085,127.336 638.532,122.912C638.097,119.427 648.775,107.537 673.698,89.734C694.928,74.569 721.741,73.372 741.067,84.681C757.497,94.295 776.977,116.14 770.262,126.728C769.831,127.407 765.689,126.604 765.042,125.51C758.753,114.864 731.491,86.992 720.19,86.988C684.944,86.975 663.876,129.744 657.45,131.539Z" style="fill:rgb(185,123,89);"/> </g> <g transform="matrix(0.739652,0,0,0.850127,142.642,21.9722)"> <path d="M661.494,169.553C655.445,168.801 670.292,150.364 680.196,139.817C696.151,122.826 719.391,110.077 719.391,110.077C719.391,110.077 696.973,130.041 688.094,140.215C679.405,150.172 668.082,170.371 661.494,169.553Z" style="fill:rgb(100,56,29);"/> </g> <g transform="matrix(0.739652,0,0,0.739652,142.642,40.823)"> <path d="M824.99,100.763C824.99,100.763 842.72,107.292 859.824,128.033C871.113,141.723 877.46,152.843 871.05,155.524C867.429,157.038 863.292,144.134 857.175,136.833C846.902,124.572 824.99,100.763 824.99,100.763Z" style="fill:rgb(100,56,29);"/> </g> <g transform="matrix(0.739652,0,0,0.739652,142.642,40.823)"> <g transform="matrix(1.8593,0,0,1.8593,-557.525,-74.7753)"> <path d="M653.771,154.837C653.477,152.821 651.796,149.012 652.008,143.909C652.189,139.531 654.538,132.377 655.338,129.506C655.73,128.099 659.391,126.995 659.411,127.591C659.465,129.134 657.496,137.273 657.462,142.759C657.434,147.335 657.972,150.921 658.256,152.625C658.56,154.448 654.023,156.558 653.771,154.837Z" style="fill:rgb(209,198,198);"/> </g> <path d="M665.897,166.891C665.601,164.921 661.769,166.533 661.396,168.577C661.022,170.621 656.605,203.993 658.886,205.649C661.409,207.48 666.801,172.915 665.897,166.891Z" style="fill:rgb(246,235,235);"/> </g> <g transform="matrix(-0.739627,0.00604799,0.00604799,0.739627,1275.59,28.5062)"> <g transform="matrix(1.8593,0,0,1.8593,-557.525,-74.7753)"> <path d="M653.764,153.905C652.841,152.089 652.811,146.251 653.563,137.833C653.954,133.468 653.735,132.8 654.535,129.929C654.927,128.522 657.298,128.019 657.319,128.615C657.372,130.158 657.496,137.273 657.462,142.759C657.434,147.335 658.29,153.392 658.002,155.095C657.756,156.55 654.403,155.165 653.764,153.905Z" style="fill:rgb(209,198,198);"/> </g> <path d="M663.827,167.236C663.531,165.267 661.369,166.536 660.995,168.58C660.621,170.624 656.605,203.993 658.886,205.649C661.409,207.48 664.731,173.261 663.827,167.236Z" style="fill:rgb(246,235,235);"/> </g> <g transform="matrix(0.739652,0,0,0.739652,142.642,40.823)"> <path d="M638.067,147.795L655.649,160.641C655.649,160.641 665.861,148.895 676.196,136.856C686.796,124.508 715.011,97.622 729.037,87.871C741.921,78.915 770.921,70.088 783.987,72.349C790.95,73.553 810.825,86.871 828.645,102.477C843.384,115.384 859.327,126.694 859.327,126.694C859.327,126.694 815.461,63.016 771.674,66.032C709.648,70.303 656.007,151.151 656.007,151.151L638.067,147.795Z" style="fill:rgb(200,157,124);"/> </g> <g transform="matrix(0.739652,0,0,0.739652,142.642,40.823)"> <path d="M613.712,176.775L658.516,220.524L678.42,221.081C678.42,221.081 660.77,224.733 658.343,223.448C655.916,222.163 613.712,176.775 613.712,176.775Z" style="fill:rgb(246,235,235);"/> </g> <g transform="matrix(0.739652,0,0,0.739652,142.642,40.823)"> <path d="M834.763,169.638C836.339,167.203 868.608,208.924 868.608,208.924L883.081,205.476C883.081,205.476 873.503,218.448 869.299,214.823C861.246,207.878 833.158,172.118 834.763,169.638Z" style="fill:rgb(246,235,235);"/> </g> <g transform="matrix(0.739652,0,0,0.739652,142.642,40.823)"> <path d="M444.027,392.015C444.027,392.015 434.159,674.65 438.986,674.65C443.813,674.65 449.086,403.569 444.027,392.015Z" style="fill:rgb(173,134,88);"/> </g> </g> </g> <defs> <radialGradient id="_Radial1" cx="0" cy="0" r="1" gradientUnits="userSpaceOnUse" gradientTransform="matrix(640,0,0,640,640,400)"><stop offset="0" style="stop-color:rgb(160,186,190);stop-opacity:1"/><stop offset="1" style="stop-color:rgb(93,130,136);stop-opacity:1"/></radialGradient> <linearGradient id="_Linear2" x1="0" y1="0" x2="1" y2="0" gradientUnits="userSpaceOnUse" gradientTransform="matrix(-14.9477,175.957,-175.957,-14.9477,689.344,616.706)"><stop offset="0" style="stop-color:rgb(69,47,35);stop-opacity:0.6"/><stop offset="1" style="stop-color:rgb(133,111,99);stop-opacity:0.6"/></linearGradient> <linearGradient id="_Linear3" x1="0" y1="0" x2="1" y2="0" gradientUnits="userSpaceOnUse" gradientTransform="matrix(-3.7281,173.254,-173.254,-3.7281,432.963,621.214)"><stop offset="0" style="stop-color:rgb(69,47,35);stop-opacity:0.6"/><stop offset="1" style="stop-color:rgb(133,111,99);stop-opacity:0.6"/></linearGradient> <linearGradient id="_Linear4" x1="0" y1="0" x2="1" y2="0" gradientUnits="userSpaceOnUse" gradientTransform="matrix(-301.336,293.318,-293.318,-301.336,812.351,129.9)"><stop offset="0" style="stop-color:rgb(183,117,79);stop-opacity:1"/><stop offset="1" style="stop-color:rgb(113,70,46);stop-opacity:1"/></linearGradient> <linearGradient id="_Linear5" x1="0" y1="0" x2="1" y2="0" gradientUnits="userSpaceOnUse" gradientTransform="matrix(12.9242,269.161,-269.161,12.9242,706.374,169.19)"><stop offset="0" style="stop-color:rgb(146,91,59);stop-opacity:1"/><stop offset="0.11" style="stop-color:rgb(195,134,87);stop-opacity:1"/><stop offset="1" style="stop-color:rgb(144,93,63);stop-opacity:1"/></linearGradient> <linearGradient id="_Linear6" x1="0" y1="0" x2="1" y2="0" gradientUnits="userSpaceOnUse" gradientTransform="matrix(-0.195657,269.126,-269.126,-0.195657,508.968,163.55)"><stop offset="0" style="stop-color:rgb(168,119,90);stop-opacity:1"/><stop offset="1" style="stop-color:rgb(106,65,42);stop-opacity:1"/></linearGradient> <linearGradient id="_Linear7" x1="0" y1="0" x2="1" y2="0" gradientUnits="userSpaceOnUse" gradientTransform="matrix(48.2631,414.271,-414.271,48.2631,723.177,280.659)"><stop offset="0" style="stop-color:rgb(172,154,138);stop-opacity:0.275486"/><stop offset="1" style="stop-color:rgb(152,108,72);stop-opacity:0.275486"/></linearGradient> <linearGradient id="_Linear8" x1="0" y1="0" x2="1" y2="0" gradientUnits="userSpaceOnUse" gradientTransform="matrix(10.783,310.516,-310.516,10.783,602.048,132.933)"><stop offset="0" style="stop-color:rgb(169,122,94);stop-opacity:1"/><stop offset="0.06" style="stop-color:rgb(153,95,62);stop-opacity:1"/><stop offset="0.09" style="stop-color:rgb(157,99,67);stop-opacity:1"/><stop offset="0.1" style="stop-color:rgb(165,108,76);stop-opacity:1"/><stop offset="0.11" style="stop-color:rgb(172,117,85);stop-opacity:1"/><stop offset="0.17" style="stop-color:rgb(156,102,70);stop-opacity:1"/><stop offset="1" style="stop-color:rgb(124,85,62);stop-opacity:1"/></linearGradient> <linearGradient id="_Linear9" x1="0" y1="0" x2="1" y2="0" gradientUnits="userSpaceOnUse" gradientTransform="matrix(10.783,310.516,-310.516,10.783,602.048,132.933)"><stop offset="0" style="stop-color:rgb(169,122,94);stop-opacity:1"/><stop offset="0.06" style="stop-color:rgb(153,95,62);stop-opacity:1"/><stop offset="0.09" style="stop-color:rgb(157,99,67);stop-opacity:1"/><stop offset="0.1" style="stop-color:rgb(165,108,76);stop-opacity:1"/><stop offset="0.11" style="stop-color:rgb(172,117,85);stop-opacity:1"/><stop offset="0.17" style="stop-color:rgb(156,102,70);stop-opacity:1"/><stop offset="1" style="stop-color:rgb(124,85,62);stop-opacity:1"/></linearGradient> </defs> </svg>